# xmcd
#
# Track frame offsets:
#	150
#	22498
#	50548
#	69260
#	92317
#	106758
#	123397
#	140630
#	157642
#	171175
#	185847
#	197917
#	211670
#	218500
#
# Disc length: 3149 seconds
#
# Revision: 1
# Processed by: cddbd v1.5.1PL0 Copyright (c) Steve Scherf et al.
# Submitted via: EasyCDDAExtractor 7.1.0.1
#
DISCID=bf0c4b0e
DTITLE=Krzysztof Reder - Splywowa 2003
DYEAR=2003
DGENRE=
TTITLE0=Splywowa 2003
TTITLE1=Marzenie o Tobie
TTITLE2=Reggaemix]
TTITLE3=Tylko z Toba chce...
TTITLE4=Teraz wiem
TTITLE5=I'm crazy loving You
TTITLE6=Smerfy w Acapulco
TTITLE7=Lato
TTITLE8=Wehikul czasu
TTITLE9=Zbuntowany Aniol
TTITLE10=Mikolaju, Mikolaju...
TTITLE11=Gdy sliczna Panna...
TTITLE12=Pojdzmy wszyscy do stajenki
TTITLE13=La France
EXTD=
EXTT0=
EXTT1=
EXTT2=
EXTT3=
EXTT4=
EXTT5=
EXTT6=
EXTT7=
EXTT8=
EXTT9=
EXTT10=
EXTT11=
EXTT12=
EXTT13=
PLAYORDER=
